<svg xmlns="http://www.w3.org/2000/svg" width="250.43" height="35" viewBox="0 0 250.43 35"><rect class="svg__rect" x="0" y="0" width="133.59" height="35" fill="#31C4F3"/><rect class="svg__rect" x="131.59" y="0" width="118.84" height="35" fill="#389AD5"/><path class="svg__text" d="M19.57 22L14.22 22L14.22 13.47L15.70 13.47L15.70 20.82L19.57 20.82L19.57 22ZM24.48 22L22.94 22L26.16 13.47L27.49 13.47L30.72 22L29.17 22L28.47 20.01L25.17 20.01L24.48 22ZM26.82 15.28L25.58 18.82L28.06 18.82L26.82 15.28ZM34.24 19.42L34.24 19.42L35.72 19.42Q35.72 20.15 36.20 20.55Q36.68 20.95 37.58 20.95L37.58 20.95Q38.35 20.95 38.74 20.63Q39.13 20.32 39.13 19.80L39.13 19.80Q39.13 19.24 38.74 18.94Q38.34 18.63 37.31 18.32Q36.28 18.01 35.67 17.63L35.67 17.63Q34.50 16.90 34.50 15.72L34.50 15.72Q34.50 14.69 35.34 14.02Q36.18 13.35 37.53 13.35L37.53 13.35Q38.42 13.35 39.11 13.68Q39.81 14.01 40.21 14.61Q40.61 15.22 40.61 15.96L40.61 15.96L39.13 15.96Q39.13 15.29 38.71 14.91Q38.29 14.54 37.51 14.54L37.51 14.54Q36.79 14.54 36.39 14.85Q35.98 15.16 35.98 15.71L35.98 15.71Q35.98 16.18 36.42 16.50Q36.85 16.81 37.85 17.10Q38.84 17.40 39.45 17.78Q40.05 18.16 40.33 18.65Q40.61 19.13 40.61 19.79L40.61 19.79Q40.61 20.86 39.80 21.49Q38.98 22.12 37.58 22.12L37.58 22.12Q36.65 22.12 35.88 21.77Q35.10 21.43 34.67 20.83Q34.24 20.22 34.24 19.42ZM46.58 14.66L43.95 14.66L43.95 13.47L50.72 13.47L50.72 14.66L48.06 14.66L48.06 22L46.58 22L46.58 14.66ZM57.10 18.95L54.02 18.95L54.02 17.80L57.10 17.80L57.10 18.95ZM61.26 19.16L61.26 19.16L61.26 13.47L62.74 13.47L62.74 19.18Q62.74 20.03 63.17 20.48Q63.61 20.93 64.45 20.93L64.45 20.93Q66.16 20.93 66.16 19.13L66.16 19.13L66.16 13.47L67.64 13.47L67.64 19.17Q67.64 20.53 66.77 21.32Q65.90 22.12 64.45 22.12L64.45 22.12Q62.98 22.12 62.12 21.33Q61.26 20.55 61.26 19.16ZM73.69 22L72.21 22L72.21 13.47L75.47 13.47Q76.90 13.47 77.74 14.21Q78.58 14.96 78.58 16.18L78.58 16.18Q78.58 17.44 77.76 18.13Q76.94 18.83 75.45 18.83L75.45 18.83L73.69 18.83L73.69 22ZM73.69 14.66L73.69 17.64L75.47 17.64Q76.26 17.64 76.68 17.27Q77.09 16.90 77.09 16.19L77.09 16.19Q77.09 15.50 76.67 15.09Q76.25 14.68 75.51 14.66L75.51 14.66L73.69 14.66ZM85.32 22L82.87 22L82.87 13.47L85.39 13.47Q86.52 13.47 87.39 13.97Q88.27 14.48 88.75 15.40Q89.23 16.33 89.23 17.52L89.23 17.52L89.23 17.95Q89.23 19.16 88.75 20.08Q88.26 21.00 87.37 21.50Q86.47 22 85.32 22L85.32 22ZM84.35 14.66L84.35 20.82L85.31 20.82Q86.48 20.82 87.10 20.09Q87.73 19.36 87.74 17.99L87.74 17.99L87.74 17.52Q87.74 16.13 87.14 15.40Q86.53 14.66 85.39 14.66L85.39 14.66L84.35 14.66ZM94.47 22L92.93 22L96.15 13.47L97.48 13.47L100.71 22L99.17 22L98.47 20.01L95.16 20.01L94.47 22ZM96.82 15.28L95.58 18.82L98.05 18.82L96.82 15.28ZM106.35 14.66L103.71 14.66L103.71 13.47L110.48 13.47L110.48 14.66L107.82 14.66L107.82 22L106.35 22L106.35 14.66ZM119.81 22L114.24 22L114.24 13.47L119.77 13.47L119.77 14.66L115.72 14.66L115.72 17.02L119.22 17.02L119.22 18.19L115.72 18.19L115.72 20.82L119.81 20.82L119.81 22Z" fill="#FFFFFF"/><path class="svg__text" d="M144.70 20.93L144.70 20.93L145.99 19.40Q146.66 20.27 147.44 20.27L147.44 20.27Q147.44 20.27 147.45 20.27L147.45 20.27Q147.96 20.27 148.23 19.96Q148.50 19.65 148.50 19.05L148.50 19.05L148.50 15.44L145.60 15.44L145.60 13.60L150.86 13.60L150.86 18.91Q150.86 20.54 150.03 21.36Q149.21 22.17 147.62 22.17L147.62 22.17Q146.69 22.17 145.94 21.85Q145.18 21.53 144.70 20.93ZM155.87 18.26L155.87 18.26L155.87 13.60L158.25 13.60L158.25 18.19Q158.25 20.20 159.85 20.20L159.85 20.20Q161.43 20.20 161.43 18.19L161.43 18.19L161.43 13.60L163.77 13.60L163.77 18.26Q163.77 20.13 162.73 21.15Q161.69 22.17 159.82 22.17L159.82 22.17Q157.95 22.17 156.91 21.15Q155.87 20.13 155.87 18.26ZM175.24 22L168.86 22L168.86 13.60L171.24 13.60L171.24 20.11L175.24 20.11L175.24 22ZM181.79 18.95L178.58 13.60L181.09 13.60L183.08 16.94L185.08 13.60L187.38 13.60L184.16 18.99L184.16 22L181.79 22L181.79 18.95ZM199.29 16.17L197.53 15.19Q198.02 14.37 198.91 13.90Q199.80 13.43 201.01 13.43L201.01 13.43Q201.97 13.43 202.70 13.74Q203.44 14.05 203.86 14.64Q204.27 15.22 204.27 15.99L204.27 15.99Q204.27 16.67 203.98 17.28Q203.68 17.89 202.84 18.65L202.84 18.65L201.26 20.11L204.50 20.11L204.50 22L197.96 22L197.96 20.51L201.10 17.57Q201.56 17.14 201.71 16.83Q201.87 16.53 201.87 16.22L201.87 16.22Q201.87 15.81 201.59 15.58Q201.32 15.35 200.79 15.35L200.79 15.35Q200.32 15.35 199.93 15.56Q199.54 15.77 199.29 16.17L199.29 16.17ZM208.68 17.80L208.68 17.80Q208.68 16.45 209.15 15.46Q209.62 14.46 210.46 13.95Q211.30 13.43 212.38 13.43L212.38 13.43Q213.45 13.43 214.29 13.95Q215.13 14.46 215.60 15.46Q216.08 16.45 216.08 17.80L216.08 17.80Q216.08 19.15 215.60 20.15Q215.13 21.14 214.29 21.65Q213.45 22.17 212.38 22.17L212.38 22.17Q211.30 22.17 210.46 21.65Q209.62 21.14 209.15 20.15Q208.68 19.16 208.68 17.80ZM211.06 17.80L211.06 17.80Q211.06 19.06 211.42 19.64Q211.77 20.22 212.38 20.22L212.38 20.22Q212.98 20.22 213.34 19.64Q213.69 19.06 213.69 17.80L213.69 17.80Q213.69 16.54 213.34 15.96Q212.98 15.38 212.38 15.38L212.38 15.38Q211.77 15.38 211.42 15.96Q211.06 16.54 211.06 17.80ZM221.66 16.17L219.90 15.19Q220.39 14.37 221.28 13.90Q222.17 13.43 223.38 13.43L223.38 13.43Q224.34 13.43 225.08 13.74Q225.81 14.05 226.23 14.64Q226.64 15.22 226.64 15.99L226.64 15.99Q226.64 16.67 226.35 17.28Q226.05 17.89 225.21 18.65L225.21 18.65L223.63 20.11L226.87 20.11L226.87 22L220.33 22L220.33 20.51L223.47 17.57Q223.93 17.14 224.09 16.83Q224.24 16.53 224.24 16.22L224.24 16.22Q224.24 15.81 223.97 15.58Q223.69 15.35 223.16 15.35L223.16 15.35Q222.69 15.35 222.30 15.56Q221.91 15.77 221.66 16.17L221.66 16.17ZM232.33 16.17L230.57 15.19Q231.06 14.37 231.95 13.90Q232.84 13.43 234.05 13.43L234.05 13.43Q235.01 13.43 235.75 13.74Q236.48 14.05 236.90 14.64Q237.31 15.22 237.31 15.99L237.31 15.99Q237.31 16.67 237.02 17.28Q236.72 17.89 235.88 18.65L235.88 18.65L234.30 20.11L237.54 20.11L237.54 22L231.00 22L231.00 20.51L234.14 17.57Q234.60 17.14 234.76 16.83Q234.91 16.53 234.91 16.22L234.91 16.22Q234.91 15.81 234.64 15.58Q234.36 15.35 233.83 15.35L233.83 15.35Q233.36 15.35 232.97 15.56Q232.58 15.77 232.33 16.17L232.33 16.17Z" fill="#FFFFFF" x="144.59"/></svg>