<svg xmlns="http://www.w3.org/2000/svg" width="151.24" height="35" viewBox="0 0 151.24 35"><rect class="svg__rect" x="0" y="0" width="68.03" height="35" fill="#31C4F3"/><rect class="svg__rect" x="66.03" y="0" width="85.21" height="35" fill="#389AD5"/><path class="svg__text" d="M16.25 14.66L13.61 14.66L13.61 13.47L20.38 13.47L20.38 14.66L17.72 14.66L17.72 22L16.25 22L16.25 14.66ZM29.72 22L24.14 22L24.14 13.47L29.67 13.47L29.67 14.66L25.62 14.66L25.62 17.02L29.12 17.02L29.12 18.19L25.62 18.19L25.62 20.82L29.72 20.82L29.72 22ZM34.69 22L33.15 22L36.37 13.47L37.70 13.47L40.93 22L39.38 22L38.69 20.01L35.38 20.01L34.69 22ZM37.03 15.28L35.80 18.82L38.27 18.82L37.03 15.28ZM46.36 22L44.89 22L44.89 13.47L46.81 13.47L49.27 20.01L51.72 13.47L53.64 13.47L53.64 22L52.16 22L52.16 19.19L52.31 15.43L49.79 22L48.73 22L46.22 15.43L46.36 19.19L46.36 22Z" fill="#FFFFFF"/><path class="svg__text" d="M82.80 22L79.21 13.60L81.78 13.60L84.06 19.07L86.39 13.60L88.74 13.60L85.14 22L82.80 22ZM95.09 22L92.89 22L92.89 13.60L94.85 13.60L97.80 18.45L100.68 13.60L102.64 13.60L102.66 22L100.48 22L100.46 17.55L98.29 21.17L97.24 21.17L95.09 17.67L95.09 22ZM107.24 21.24L107.24 21.24L108.01 19.49Q108.58 19.86 109.32 20.09Q110.07 20.32 110.79 20.32L110.79 20.32Q112.15 20.32 112.16 19.64L112.16 19.64Q112.16 19.28 111.77 19.11Q111.38 18.93 110.51 18.74L110.51 18.74Q109.56 18.53 108.93 18.30Q108.29 18.06 107.84 17.55Q107.38 17.03 107.38 16.16L107.38 16.16Q107.38 15.39 107.80 14.77Q108.22 14.15 109.05 13.79Q109.89 13.43 111.10 13.43L111.10 13.43Q111.92 13.43 112.73 13.62Q113.53 13.80 114.15 14.17L114.15 14.17L113.42 15.93Q112.22 15.28 111.09 15.28L111.09 15.28Q110.38 15.28 110.05 15.49Q109.73 15.70 109.73 16.04L109.73 16.04Q109.73 16.37 110.12 16.54Q110.50 16.71 111.35 16.89L111.35 16.89Q112.31 17.10 112.94 17.33Q113.57 17.56 114.03 18.07Q114.50 18.58 114.50 19.46L114.50 19.46Q114.50 20.21 114.08 20.83Q113.66 21.44 112.82 21.80Q111.98 22.17 110.77 22.17L110.77 22.17Q109.75 22.17 108.79 21.92Q107.83 21.67 107.24 21.24ZM125.82 22L119.07 22L119.07 13.60L125.66 13.60L125.66 15.44L121.43 15.44L121.43 16.85L125.16 16.85L125.16 18.63L121.43 18.63L121.43 20.17L125.82 20.17L125.82 22ZM130.19 17.80L130.19 17.80Q130.19 16.54 130.79 15.54Q131.39 14.55 132.44 13.99Q133.49 13.43 134.81 13.43L134.81 13.43Q135.96 13.43 136.89 13.84Q137.81 14.25 138.42 15.02L138.42 15.02L136.91 16.39Q136.10 15.40 134.93 15.40L134.93 15.40Q134.25 15.40 133.71 15.70Q133.18 16 132.88 16.54Q132.59 17.09 132.59 17.80L132.59 17.80Q132.59 18.51 132.88 19.05Q133.18 19.60 133.71 19.90Q134.25 20.20 134.93 20.20L134.93 20.20Q136.10 20.20 136.91 19.22L136.91 19.22L138.42 20.58Q137.82 21.35 136.89 21.76Q135.96 22.17 134.81 22.17L134.81 22.17Q133.49 22.17 132.44 21.61Q131.39 21.05 130.79 20.05Q130.19 19.06 130.19 17.80Z" fill="#FFFFFF" x="79.03"/></svg>